HIERARCHY
ROOT Hips
{
	OFFSET 0.000000 0.000000 0.000000 
	CHANNELS 6 Xposition Yposition Zposition Zrotation Yrotation Xrotation
	JOINT LeftUpLeg
	{
		OFFSET 0.000000 0.000000 0.000000 
		CHANNELS 3 Zrotation Yrotation Xrotation
		JOINT LeftLeg
		{
			OFFSET 3.811170 -8.520760 0.839290 
			CHANNELS 3 Zrotation Yrotation Xrotation
			JOINT LeftFoot
			{
				OFFSET 2.562200 -7.039590 0.000000 
				CHANNELS 3 Zrotation Yrotation Xrotation
				JOINT LeftToeBase
				{
					OFFSET 0.157640 -0.433110 2.322550 
					CHANNELS 3 Zrotation Yrotation Xrotation
					End Site
					{
						OFFSET 0.000000 0.000000 0.000000 
					}
				}
			}
		}
	}
	JOINT RigthUpLeg
	{
		OFFSET 0.000000 0.000000 0.000000 
		CHANNELS 3 Zrotation Yrotation Xrotation
		JOINT RightLeg
		{
			OFFSET -3.848050 -8.780180 0.839290 
			CHANNELS 3 Zrotation Yrotation Xrotation
			JOINT RightFoot
			{
				OFFSET -2.568260 -7.056230 0.000000 
				CHANNELS 3 Zrotation Yrotation Xrotation
				JOINT RightToeBase
				{
					OFFSET -0.164730 -0.452590 2.363150 
					CHANNELS 3 Zrotation Yrotation Xrotation
					End Site
					{
						OFFSET 0.000000 0.000000 0.000000 
					}
				}
			}
		}
	}
	JOINT Spine
	{
		OFFSET 0.028270 2.035590 -0.193380 
		CHANNELS 3 Zrotation Yrotation Xrotation
		JOINT Spine1
		{
			OFFSET 0.056720 2.048850 -0.042750 
			CHANNELS 3 Zrotation Yrotation Xrotation
			JOINT Neck1
			{
				OFFSET -0.054170 1.746240 0.172020 
				CHANNELS 3 Zrotation Yrotation Xrotation
				JOINT Head
				{
					OFFSET 0.104070 1.761360 -0.123970 
					CHANNELS 3 Zrotation Yrotation Xrotation
					End Site
					{
						OFFSET 0.000000 0.000000 0.000000 
					}
				}
			}
			JOINT LeftArm
			{
				OFFSET 3.362410 1.200890 -0.311210 
				CHANNELS 3 Zrotation Yrotation Xrotation
				JOINT LeftForeArm
				{
					OFFSET 4.983000 -0.000000 -0.000000 
					CHANNELS 3 Zrotation Yrotation Xrotation
					JOINT LeftHand
					{
						OFFSET 3.483560 -0.000000 -0.000000 
						CHANNELS 3 Zrotation Yrotation Xrotation
						JOINT LeftHandIndex1
						{
							OFFSET 0.715260 -0.000000 -0.000000 
							CHANNELS 3 Zrotation Yrotation Xrotation
							End Site
							{
								OFFSET 0.000000 0.000000 0.000000 
							}
						}
					}
				}
			}
			JOINT RightArm
			{
				OFFSET -3.136600 1.374050 -0.404650 
				CHANNELS 3 Zrotation Yrotation Xrotation
				JOINT RightForeArm
				{
					OFFSET -5.241900 -0.000000 -0.000000 
					CHANNELS 3 Zrotation Yrotation Xrotation
					JOINT RightHand
					{
						OFFSET -3.444170 -0.000000 -0.000000 
						CHANNELS 3 Zrotation Yrotation Xrotation
						JOINT RightHandIndex1
						{
							OFFSET -0.622530 -0.000000 -0.000000 
							CHANNELS 3 Zrotation Yrotation Xrotation
							End Site
							{
								OFFSET 0.000000 0.000000 0.000000 
							}
						}
					}
				}
			}
		}
	}
}
MOTION
Frames: 14
Frame Time: 0.008333
4.847296 15.567984 -2.364512 -5.013435 -25.555210 3.808602 -16.069204 58.939232 -11.808034 12.596786 -2.509319 -4.434084 -34.008762 15.736134 -6.599555 14.622351 7.722059 -33.389107 26.552746 -7.379671 -36.652328 19.993967 -38.929642 11.745507 30.272799 11.807400 -13.018493 -19.909313 -22.650982 -30.800343 28.551376 5.572001 30.762381 18.788420 34.797874 -15.431429 38.401245 44.828827 0.498054 25.780827 -25.340881 -39.114349 -46.245075 -23.789406 33.973518 95.739456 -96.361870 -30.063164 -2.207346 12.819638 13.858240 11.528359 18.865419 10.618315 139.236755 -1.251719 27.166473 -105.173485 24.970995 -19.660362 -34.749363 29.342026 -41.032822 -40.842407 -31.036892 -7.138695 
4.832201 15.566452 -2.370173 -4.986884 -25.394220 3.820341 -36.643166 46.559757 -23.208576 -6.770468 1.982421 2.760119 35.560738 -27.154158 23.300470 29.162321 -36.209820 17.604687 22.451477 0.541922 -33.621029 13.912499 -50.538071 17.804193 20.436171 -26.597626 -24.029531 -13.842997 43.617950 -10.652561 -8.554616 -22.374891 -0.383454 -17.743259 -22.078592 0.332872 -28.967932 -0.527174 39.572853 -40.931664 -12.839296 -4.375121 -39.022266 -2.690472 21.294203 55.922779 -55.597996 10.117919 28.893841 -39.345798 -42.849964 26.548254 0.247978 6.973784 100.581367 32.041485 60.017612 -113.349586 80.881454 43.205444 -36.977661 22.921289 -1.122238 -41.070751 -36.348389 -16.301704 
4.817107 15.564921 -2.375835 -4.960369 -25.233309 3.832239 6.718097 4.016663 -3.987730 -48.022160 -21.195719 10.926599 -33.340324 -4.518513 0.835847 25.857189 -13.326372 39.077862 -49.089863 20.563097 -23.832006 26.827164 -2.672426 70.833618 8.560137 7.239333 -53.095371 35.273064 -6.001550 25.728580 -14.739451 25.837614 35.232021 35.990723 -29.541609 32.757771 4.836614 -32.773003 40.245670 37.004826 6.911432 36.310146 -10.072244 -6.155815 -24.501183 100.647781 -27.380356 26.678877 -40.110477 -44.613708 35.796062 37.363564 18.666395 43.442707 65.044319 45.234787 53.663246 -67.732651 88.036148 39.318554 13.919782 4.549019 35.855442 -19.417709 29.971313 2.388710 
4.802012 15.563389 -2.381496 -4.933893 -25.072481 3.844295 6.965465 8.490789 -51.850929 -49.322754 21.986036 48.201916 -26.443249 -8.614696 -15.064051 21.740822 27.656988 -29.165661 -22.892843 2.431251 -18.887238 19.441545 -47.091190 0.893705 -29.672779 25.243185 27.255625 -36.340008 36.941200 -7.255144 30.397705 -31.698221 -36.694313 -0.590137 40.195156 0.027796 16.819883 16.263750 3.848217 43.206139 13.059688 -29.433115 -47.116276 -53.939781 30.935068 50.817654 -87.156113 -32.041031 -22.669666 18.141279 -21.627562 10.614561 -10.337339 6.711771 88.337776 54.736523 19.340466 -123.092110 106.591179 17.431959 -27.856672 22.406084 28.373833 12.037850 -26.142527 -17.217337 
4.786918 15.561857 -2.387158 -4.907456 -24.911741 3.856510 -31.651787 -22.099970 -32.330372 -20.115456 -4.322964 29.757729 -34.372482 15.465511 -45.074471 28.934164 32.180252 -20.058899 31.026493 -58.059391 4.487397 11.189790 -43.441898 55.169518 38.876823 36.550262 20.005627 10.613046 0.924038 25.374195 39.079636 15.836244 7.880249 -5.821129 -26.142126 -10.421787 -36.805851 22.047531 30.439270 22.396519 -16.758526 -31.491693 -54.748627 -47.439522 25.642227 91.679405 -34.058983 44.479576 38.738750 42.953926 33.992767 16.497864 -37.541069 -7.986079 88.236961 51.633385 42.340237 -118.593071 88.631416 11.858635 7.642479 7.024506 -9.577491 43.586884 -8.380415 11.258464 
4.771644 15.560423 -2.392403 -4.886722 -24.730591 3.870037 34.037109 64.627457 -12.613944 10.487363 35.411655 38.786564 13.046658 -1.678101 -12.107214 1.906858 5.996715 -14.275209 2.023098 28.939346 43.162323 60.537415 -12.677216 5.253344 -36.184166 7.266447 -50.488155 -41.058830 27.011971 34.289330 -25.214951 -17.533762 -7.161298 -17.158636 39.237728 3.512230 -22.325102 21.958229 -8.201820 12.406477 10.027062 22.120243 -79.577660 -26.390888 51.542202 109.861496 -24.883072 -0.904224 -38.523254 23.959047 37.177612 -20.957552 -23.447912 17.190407 139.463943 -11.038146 65.145767 -62.226608 51.445763 -16.225458 19.678925 -30.239923 32.670437 24.302261 -41.075943 -2.796888 
4.756367 15.558990 -2.397638 -4.866138 -24.549143 3.883723 8.180116 -20.145506 -60.434654 3.718350 22.795532 55.780518 30.194679 -37.309654 -36.245998 40.847572 15.761314 -15.441773 21.614508 -3.242058 33.014053 13.964831 1.413742 -9.685572 43.972439 26.210888 -9.362170 -6.249280 -3.509740 -17.663202 -11.919714 13.899374 -43.212887 39.901802 13.986864 11.510952 6.127707 -15.310158 -2.409366 -31.209051 -11.828367 22.503992 -28.450829 -20.623430 48.683311 80.314667 -56.456345 -41.847225 -36.968254 4.571392 11.177190 10.226594 -44.811462 -29.205095 72.795280 -11.431425 33.419418 -64.706017 64.509331 11.405740 3.912957 -28.880457 39.486801 -27.086300 -42.897537 30.417847 
4.741089 15.557558 -2.402874 -4.845577 -24.367853 3.897542 22.617088 -0.667986 -41.238297 -1.563779 17.063602 -12.491671 -9.614176 -31.746792 -38.496132 -36.431545 32.977970 -12.715342 15.372142 -35.260471 43.244068 20.491121 27.838173 66.740944 39.271774 16.796370 17.557335 -42.114143 5.491469 -35.403606 34.520683 7.117105 -24.355684 -28.817169 -13.422669 -7.692386 16.919188 -4.475705 26.197277 16.926294 -23.971321 9.413469 -72.292709 -23.837828 -25.695545 56.450687 -67.678085 -15.438581 12.267394 16.617197 28.551197 35.010113 -29.126974 -14.402031 133.643982 45.852924 -1.293473 -93.992119 61.979870 -16.879799 18.130529 18.328274 20.888651 15.860525 34.839977 -39.690426 
4.725811 15.556126 -2.408110 -4.825040 -24.186731 3.911492 29.480019 67.128334 -65.190559 9.898009 49.373802 31.273861 1.706312 -4.619755 -20.295576 33.661488 -33.549332 4.737438 -9.934982 27.251402 -17.360209 -6.408936 -22.952562 50.997597 -36.407951 34.068340 7.557995 2.200897 6.534468 11.679833 24.542526 7.123911 -48.490295 -11.417273 2.149908 -11.381885 28.680593 -3.902847 18.578857 -40.568554 18.808558 29.202566 -44.375568 -26.591217 -29.624146 52.229095 -69.778893 3.330024 -40.858166 7.841579 -31.914776 -8.501402 -1.243413 -4.978759 95.927666 24.037348 63.374657 -49.056965 101.202805 31.136375 30.840487 24.344742 -29.126123 -33.929474 -16.116846 -18.958525 
4.710500 15.554724 -2.412900 -4.809207 -23.982445 3.924997 24.215399 -7.729986 -22.874758 14.332743 18.103455 50.849190 -4.172102 -36.737728 10.254469 -37.503700 32.877693 38.059250 -39.082684 -4.423199 34.510399 35.217136 0.721408 4.561188 -19.022247 -2.115342 33.294189 -19.909702 -1.469451 44.828548 -24.012486 -24.639694 31.037970 41.289753 28.098814 -38.107265 -15.674693 -4.021855 18.767151 24.095343 4.370399 -31.310762 -0.277022 -64.827759 1.079448 87.681686 -36.642967 39.649879 -42.942608 -12.311986 14.477720 -21.015741 -6.074334 26.031464 123.396317 29.131641 68.601730 -75.132393 79.128548 -39.620029 9.573202 8.815457 -0.872389 -12.642691 2.318165 -39.377468 
4.695186 15.553324 -2.417671 -4.793570 -23.777342 3.938570 -46.169441 -11.068412 -21.409887 -6.849029 53.742409 14.490540 -41.257050 14.917197 -39.946392 -20.671824 -31.538443 -41.316162 -14.631018 -36.153938 -2.627140 45.078346 -21.938379 69.472832 29.948177 -33.259277 -5.894179 -1.145116 -26.348572 11.127713 -1.305043 40.818489 21.605991 -30.992990 16.662823 -41.876225 35.663860 22.846315 38.049835 6.327994 -35.043331 -33.312576 -18.964573 -10.364947 -5.517300 101.864799 -24.528645 -2.197236 7.839623 24.664429 26.648371 -1.094744 14.480379 1.316868 98.651955 38.329304 45.039577 -132.656525 54.560787 28.971945 41.360886 -38.429302 -26.471058 36.136597 -12.590369 -41.745216 
4.679873 15.551923 -2.422441 -4.777918 -23.572485 3.952232 -28.333864 -9.235473 -45.176762 16.110167 33.454601 54.915482 8.482182 16.891870 -14.243185 -18.789858 -19.477388 -19.729111 2.436621 -17.158821 -29.124166 -7.147444 25.955206 52.423714 1.999653 -0.846497 8.157201 -28.645174 -27.382734 -10.415857 -23.988634 7.715558 12.931243 -42.097797 -5.877428 10.546249 31.475983 20.052338 15.829794 35.313255 8.644488 23.190502 -1.929613 -41.216106 34.280365 55.583977 -30.996174 2.291539 4.150573 -8.108463 5.029536 -19.548944 -38.461994 13.591991 140.813751 67.570030 1.641914 -107.735138 95.753151 38.886799 -38.984352 25.193375 11.764054 14.897936 -19.817411 38.611195 
4.664560 15.550523 -2.427211 -4.762252 -23.367880 3.965985 -5.589110 47.829334 -32.943386 -17.178400 10.308995 21.032755 -10.489217 50.443977 -15.840913 36.766373 -11.902780 -40.741077 27.771837 12.878550 -21.495712 22.244774 -9.615141 -12.036357 -28.361366 9.154403 -14.624909 43.220119 -8.797409 -27.939642 -28.896620 33.493366 30.328161 -1.515291 -42.220711 14.348943 -24.882519 -28.698528 -9.205180 -16.369675 28.510315 -29.637770 -7.809315 3.905940 17.086708 33.188923 -43.081799 -17.364452 -44.751225 -43.693474 -18.345894 -33.911541 -28.316128 -20.131199 125.454582 18.730919 5.050310 -74.272346 60.427841 -2.112386 -18.251333 18.463528 19.694715 25.737991 26.316156 39.370419 
4.649451 15.549089 -2.431353 -4.746350 -23.141703 3.978118 -0.041048 21.767530 -1.354798 16.993399 10.054016 -10.793252 29.516485 -6.373535 -47.166191 2.311307 1.178484 -25.786383 27.237139 10.743885 33.362579 67.812424 -26.914637 17.655121 34.707462 -19.423042 -5.799478 -11.304160 -43.148026 34.308342 43.383888 1.239117 -20.324671 7.923898 6.980980 -20.541565 40.366802 -24.269491 -34.309353 44.290371 -25.805716 19.538485 -6.881818 -0.574817 -28.558304 114.327492 -53.239140 -5.216999 -41.398552 -19.441175 -36.396175 15.841136 -41.909546 25.898537 130.059082 65.582764 72.332504 -102.475151 91.485931 -9.865552 -17.968775 3.481768 21.507980 -31.512968 13.078351 44.680038 
